<svg xmlns="http://www.w3.org/2000/svg" xmlns:xlink="http://www.w3.org/1999/xlink" viewBox="0,0,256,256" width="24px" height="24px" fill-rule="nonzero"><g fill="#ffffff" fill-rule="nonzero" stroke="none" stroke-width="1" stroke-linecap="butt" stroke-linejoin="miter" stroke-miterlimit="10" stroke-dasharray="" stroke-dashoffset="0" font-family="none" font-weight="none" font-size="none" text-anchor="none" style="mix-blend-mode: normal"><g transform="scale(10.66667,10.66667)"><path d="M4,2c-1.105,0 -2,0.895 -2,2v12c0,1.105 0.895,2 2,2h12c1.105,0 2,-0.895 2,-2v-12c0,-1.105 -0.895,-2 -2,-2zM4,4h12v12h-12zM20,6v14h-14v2h14c1.105,0 2,-0.895 2,-2v-14zM13.29297,6.29297l-4.29297,4.29297l-2.29297,-2.29297l-1.41406,1.41406l3.70703,3.70703l5.70703,-5.70703z"></path></g></g></svg>